<svg width="612" height="524" viewBox="0 0 612 524" fill="none" xmlns="http://www.w3.org/2000/svg">
<path d="M32.306 64.6695C33.1179 62.3897 35.3821 61.0441 37.6873 61.3026C38.648 61.4103 39.6079 61.4958 40.573 61.4391C64.6428 60.0235 94.4552 73.8053 126.192 92.6787C97.1389 69.1703 70.5486 48.3746 39.2747 69.7455C37.0409 71.272 33.8759 70.7328 32.5765 68.3597C32.0545 67.4063 31.8659 66.2638 32.1772 65.0853C32.214 64.9462 32.2568 64.8075 32.306 64.6695H32.306V64.6695V64.6695Z" fill="#E6E6E6"/>
<path d="M192.839 8.28234C194.823 9.54723 195.639 11.9528 194.978 14.0973L194.903 14.3392C194.241 16.492 192.797 18.3006 190.885 19.4911C163.516 36.5295 195.204 58.3346 144.551 93.5309V93.5309C169.079 67.2841 189.254 6.50185 192.319 7.99149C192.496 8.07729 192.669 8.17418 192.839 8.28235H192.839V8.28234Z" fill="#E6E6E6"/>
<path d="M234.79 141.519C233.769 143.639 231.478 144.735 229.27 144.333L229.021 144.288C226.805 143.885 224.837 142.667 223.428 140.909C203.262 115.756 185.372 149.808 144.412 103.691H144.412C173.385 124.931 236.132 137.748 235.017 140.968C234.953 141.154 234.877 141.338 234.79 141.519V141.519H234.79V141.519Z" fill="#E6E6E6"/>
<path d="M197.929 139.947C196.879 140.53 195.185 140.448 193.818 139.816L193.663 139.745C192.29 139.111 191.228 138.221 190.627 137.248C182.032 123.321 164.184 132.359 145.824 105.959H145.824C160.875 120.313 199.489 138.808 198.177 139.788C198.102 139.844 198.019 139.897 197.929 139.947V139.947Z" fill="#E6E6E6"/>
<path d="M206.212 84.3985C205.953 85.5713 204.769 86.7854 203.389 87.3903L203.233 87.4585C201.848 88.0661 200.478 88.2718 199.351 88.0765C183.226 85.281 178.162 104.635 146.226 100.882H146.226C166.95 99.1279 206.393 82.4754 206.257 84.107C206.25 84.2009 206.235 84.2982 206.212 84.3985H206.212Z" fill="#E6E6E6"/>
<path d="M44.8324 157.144C43.6748 155.096 44.0836 152.588 45.6745 151.006L45.854 150.827C47.4501 149.238 49.5738 148.319 51.821 148.165C83.9858 145.975 66.2486 111.843 127.497 104.555V104.555C93.516 116.209 47.1611 160.399 45.1547 157.645C45.0391 157.486 44.9314 157.319 44.8324 157.144V157.144V157.144Z" fill="#E6E6E6"/>
<path d="M174.185 156.776C172.996 157.57 171.469 157.412 170.453 156.487L170.338 156.383C169.318 155.455 168.682 154.176 168.503 152.791C165.934 132.97 146.049 145.235 139.28 107.61H139.28C147.623 128.197 176.057 155.212 174.475 156.558C174.384 156.635 174.287 156.708 174.185 156.776H174.185Z" fill="#E6E6E6"/>
<path d="M138.161 189.377C136.339 189.392 134.805 188.167 134.345 186.486L134.293 186.296C133.83 184.609 134.021 182.815 134.776 181.227C145.572 158.49 115.797 157.684 134.255 113.212H134.255C129.145 140.759 141.244 189.02 138.622 189.347C138.471 189.366 138.317 189.376 138.161 189.377V189.377H138.161Z" fill="#6C63FF"/>
<path d="M72.1957 158.306C71.0216 156.912 70.9865 154.949 71.9879 153.522L72.1009 153.361C73.1054 151.929 74.6084 150.932 76.3129 150.499C100.709 144.309 82.3362 120.865 128.358 106.71V106.71C103.884 120.348 74.4373 160.452 72.513 158.641C72.4021 158.537 72.2962 158.425 72.1957 158.306H72.1957Z" fill="#6C63FF"/>
<path d="M86.9977 137.952C86.2551 137.258 86.2351 136.214 86.8715 135.413L86.9432 135.323C87.5815 134.518 88.5353 133.925 89.6161 133.625C105.086 129.321 93.4677 117.596 122.653 108.157C107.126 116.43 88.416 139.002 87.1984 138.117C87.1282 138.066 87.0612 138.011 86.9977 137.952V137.952Z" fill="#6C63FF"/>
<path d="M108.633 152.785C107.694 152.396 107.308 151.426 107.622 150.453L107.658 150.343C107.973 149.365 108.657 148.475 109.563 147.814C122.534 138.348 107.536 131.453 131.543 112.361C119.913 125.563 110.329 153.27 108.879 152.869C108.795 152.846 108.713 152.818 108.633 152.785V152.785Z" fill="#E6E6E6"/>
<path d="M45.3404 87.0239L47.6996 94.2848H55.3341L49.1577 98.7723L51.5169 106.033L45.3404 101.546L39.1639 106.033L41.5231 98.7723L35.3467 94.2848H42.9812L45.3404 87.0239Z" fill="#6C63FF"/>
<path d="M150.548 0L152.908 7.26087H160.542L154.366 11.7483L156.725 19.0092L150.548 14.5217L144.372 19.0092L146.731 11.7483L140.555 7.26087H148.189L150.548 0Z" fill="#E6E6E6"/>
<path d="M206.4 77.9319L208.759 85.1928H216.394L210.217 89.6802L212.576 96.9411L206.4 92.4536L200.224 96.9411L202.583 89.6802L196.406 85.1928H204.041L206.4 77.9319Z" fill="#6C63FF"/>
<path d="M93.399 157.163L95.7582 164.423H103.393L97.2163 168.911L99.5755 176.172L93.399 171.684L87.2225 176.172L89.5817 168.911L83.4053 164.423H91.0398L93.399 157.163Z" fill="#6C63FF"/>
<path d="M136.261 77.9319L138.621 85.1928H146.255L140.079 89.6802L142.438 96.9411L136.261 92.4536L130.085 96.9411L132.444 89.6802L126.268 85.1928H133.902L136.261 77.9319Z" fill="#6C63FF"/>
<path d="M195.204 0L197.563 7.26087H205.197L199.021 11.7483L201.38 19.0092L195.204 14.5217L189.027 19.0092L191.386 11.7483L185.21 7.26087H192.844L195.204 0Z" fill="#E6E6E6"/>
<path d="M41.3391 143.502L44.3309 150.526L51.9356 149.851L46.18 154.867L49.1718 161.891L42.6228 157.967L36.8672 162.983L38.5753 155.542L32.0264 151.618L39.631 150.943L41.3391 143.502Z" fill="#E6E6E6"/>
<path d="M106.65 9.35391C108.027 8.67594 109.575 9.13328 110.451 10.3617L110.55 10.5003C111.43 11.7327 111.848 13.292 111.775 14.8867C110.725 37.7113 133.553 27.5085 133.516 71.1815H133.516C128.745 46.438 104.424 10.7761 106.31 9.54733C106.419 9.47655 106.532 9.4119 106.65 9.35391H106.65Z" fill="#6C63FF"/>
<path d="M86.7411 43.1853C87.3515 42.4232 88.3532 42.3181 89.1713 42.8561L89.2636 42.9167C90.0849 43.4563 90.7272 44.3127 91.0981 45.3138C96.407 59.6429 106.795 47.6475 118.078 74.5721C108.95 60.5158 85.8392 44.6182 86.5973 43.3894C86.641 43.3187 86.6889 43.2505 86.7411 43.1853L86.7411 43.1853Z" fill="#E6E6E6"/>
<path d="M69.1685 84.8355C69.2522 83.8627 70.0264 83.2184 71.0055 83.2107L71.1159 83.2099C72.0986 83.2017 73.1086 83.5564 73.9735 84.1823C86.3529 93.141 88.3179 77.3951 112.666 93.5014C97.2642 86.8927 69.2155 86.528 69.1625 85.0852C69.1595 85.0021 69.1614 84.9188 69.1686 84.8355H69.1685Z" fill="#E6E6E6"/>
<path d="M176.28 326.669C177.092 324.39 179.356 323.044 181.661 323.303C182.622 323.41 183.582 323.496 184.547 323.439C208.616 322.024 238.429 335.805 270.165 354.679C241.113 331.17 214.522 310.375 183.248 331.746C181.014 333.272 177.85 332.733 176.55 330.36C176.028 329.406 175.84 328.264 176.151 327.085C176.188 326.946 176.23 326.808 176.28 326.669H176.28V326.669V326.669Z" fill="#E6E6E6"/>
<path d="M336.813 270.282C338.797 271.547 339.613 273.953 338.952 276.097L338.877 276.339C338.214 278.492 336.771 280.301 334.859 281.491C307.49 298.53 339.177 320.335 288.524 355.531V355.531C313.053 329.284 333.228 268.502 336.293 269.991C336.469 270.077 336.643 270.174 336.813 270.282H336.813V270.282Z" fill="#E6E6E6"/>
<path d="M378.764 403.519C377.743 405.639 375.451 406.735 373.244 406.333L372.995 406.288C370.778 405.885 368.811 404.667 367.402 402.909C347.235 377.756 329.346 411.808 288.386 365.691H288.386C317.359 386.931 380.106 399.748 378.991 402.968C378.926 403.154 378.851 403.338 378.764 403.519V403.519H378.764V403.519Z" fill="#E6E6E6"/>
<path d="M341.903 401.947C340.853 402.53 339.159 402.448 337.791 401.816L337.637 401.745C336.264 401.111 335.202 400.221 334.601 399.248C326.005 385.321 308.158 394.359 289.798 367.959H289.798C304.849 382.313 343.463 400.808 342.151 401.788C342.076 401.844 341.993 401.897 341.903 401.947V401.947Z" fill="#E6E6E6"/>
<path d="M350.186 346.398C349.926 347.571 348.742 348.785 347.362 349.39L347.207 349.459C345.822 350.066 344.451 350.272 343.325 350.077C327.2 347.281 322.136 366.635 290.199 362.882H290.199C310.923 361.128 350.367 344.475 350.231 346.107C350.223 346.201 350.208 346.298 350.186 346.398H350.186Z" fill="#E6E6E6"/>
<path d="M188.806 419.144C187.648 417.096 188.057 414.588 189.648 413.006L189.828 412.827C191.424 411.238 193.547 410.319 195.795 410.165C227.959 407.975 210.222 373.843 271.471 366.555V366.555C237.49 378.209 191.135 422.399 189.128 419.645C189.013 419.486 188.905 419.319 188.806 419.144V419.144V419.144Z" fill="#E6E6E6"/>
<path d="M318.159 418.776C316.969 419.57 315.442 419.412 314.427 418.487L314.312 418.383C313.292 417.455 312.656 416.176 312.476 414.791C309.908 394.97 290.023 407.235 283.254 369.61H283.254C291.597 390.197 320.031 417.212 318.448 418.558C318.357 418.635 318.261 418.708 318.159 418.776H318.159Z" fill="#E6E6E6"/>
<path d="M282.135 451.377C280.312 451.392 278.778 450.167 278.318 448.486L278.266 448.296C277.804 446.609 277.995 444.815 278.749 443.227C289.546 420.49 259.771 419.684 278.229 375.212H278.229C273.118 402.759 285.218 451.02 282.595 451.347C282.444 451.366 282.291 451.376 282.135 451.377V451.377H282.135Z" fill="#6C63FF"/>
<path d="M216.169 420.306C214.995 418.912 214.96 416.949 215.962 415.522L216.075 415.361C217.079 413.929 218.582 412.932 220.287 412.499C244.683 406.309 226.31 382.865 272.332 368.71V368.71C247.858 382.348 218.411 422.452 216.487 420.641C216.376 420.537 216.27 420.425 216.169 420.306H216.169Z" fill="#6C63FF"/>
<path d="M230.971 399.952C230.229 399.258 230.209 398.214 230.845 397.413L230.917 397.323C231.555 396.518 232.509 395.925 233.59 395.625C249.059 391.321 237.441 379.596 266.627 370.157C251.099 378.43 232.39 401.002 231.172 400.117C231.102 400.066 231.035 400.011 230.971 399.952V399.952Z" fill="#6C63FF"/>
<path d="M252.606 414.785C251.667 414.396 251.282 413.426 251.596 412.453L251.631 412.343C251.946 411.365 252.631 410.475 253.537 409.814C266.507 400.348 251.51 393.453 275.517 374.361C263.887 387.563 254.303 415.27 252.852 414.869C252.769 414.846 252.686 414.818 252.606 414.785V414.785Z" fill="#E6E6E6"/>
<path d="M189.314 349.024L191.673 356.285H199.308L193.131 360.772L195.491 368.033L189.314 363.546L183.138 368.033L185.497 360.772L179.32 356.285H186.955L189.314 349.024Z" fill="#6C63FF"/>
<path d="M294.522 262L296.881 269.261H304.516L298.339 273.748L300.699 281.009L294.522 276.522L288.346 281.009L290.705 273.748L284.528 269.261H292.163L294.522 262Z" fill="#E6E6E6"/>
<path d="M350.374 339.932L352.733 347.193H360.367L354.191 351.68L356.55 358.941L350.374 354.454L344.197 358.941L346.556 351.68L340.38 347.193H348.014L350.374 339.932Z" fill="#6C63FF"/>
<path d="M237.373 419.163L239.732 426.423H247.366L241.19 430.911L243.549 438.172L237.373 433.684L231.196 438.172L233.555 430.911L227.379 426.423H235.013L237.373 419.163Z" fill="#6C63FF"/>
<path d="M280.235 339.932L282.594 347.193H290.229L284.052 351.68L286.411 358.941L280.235 354.454L274.058 358.941L276.418 351.68L270.241 347.193H277.876L280.235 339.932Z" fill="#6C63FF"/>
<path d="M339.177 262L341.537 269.261H349.171L342.995 273.748L345.354 281.009L339.177 276.522L333.001 281.009L335.36 273.748L329.184 269.261H336.818L339.177 262Z" fill="#E6E6E6"/>
<path d="M185.313 405.502L188.305 412.526L195.909 411.851L190.154 416.867L193.145 423.891L186.596 419.967L180.841 424.983L182.549 417.542L176 413.618L183.605 412.943L185.313 405.502Z" fill="#E6E6E6"/>
<path d="M250.623 271.354C252 270.676 253.548 271.133 254.424 272.362L254.523 272.5C255.403 273.733 255.822 275.292 255.748 276.887C254.698 299.711 277.527 289.509 277.489 333.181H277.489C272.718 308.438 248.398 272.776 250.284 271.547C250.392 271.477 250.506 271.412 250.623 271.354H250.623Z" fill="#6C63FF"/>
<path d="M230.715 305.185C231.325 304.423 232.327 304.318 233.145 304.856L233.237 304.917C234.059 305.456 234.701 306.313 235.072 307.314C240.381 321.643 250.768 309.647 262.052 336.572C252.924 322.516 229.813 306.618 230.571 305.389C230.615 305.319 230.663 305.25 230.715 305.185L230.715 305.185Z" fill="#E6E6E6"/>
<path d="M213.142 346.836C213.226 345.863 214 345.218 214.979 345.211L215.09 345.21C216.072 345.202 217.082 345.556 217.947 346.182C230.327 355.141 232.292 339.395 256.64 355.501C241.238 348.893 213.189 348.528 213.136 347.085C213.133 347.002 213.135 346.919 213.142 346.836H213.142Z" fill="#E6E6E6"/>
<path d="M414.878 124.763C415.406 123.28 416.88 122.404 418.38 122.572C419.005 122.643 419.629 122.698 420.257 122.661C435.918 121.74 455.315 130.707 475.964 142.987C457.061 127.692 439.76 114.161 419.412 128.066C417.959 129.059 415.9 128.708 415.054 127.164C414.715 126.544 414.592 125.8 414.794 125.034C414.818 124.943 414.846 124.853 414.878 124.763L414.878 124.763Z" fill="#E6E6E6"/>
<path d="M519.327 88.0756C520.618 88.8986 521.149 90.4638 520.719 91.859L520.67 92.0165C520.239 93.4171 519.3 94.5939 518.056 95.3685C500.249 106.454 520.866 120.642 487.909 143.542C503.868 126.464 516.995 86.9172 518.989 87.8864C519.104 87.9422 519.217 88.0053 519.327 88.0756V88.0756Z" fill="#E6E6E6"/>
<path d="M546.623 174.764C545.959 176.144 544.468 176.857 543.031 176.595L542.869 176.566C541.427 176.304 540.147 175.511 539.23 174.368C526.109 158.002 514.47 180.158 487.819 150.152H487.819C506.67 163.972 547.496 172.311 546.77 174.406C546.729 174.527 546.679 174.646 546.623 174.764L546.623 174.764Z" fill="#E6E6E6"/>
<path d="M522.64 173.742C521.957 174.121 520.854 174.068 519.965 173.657L519.864 173.61C518.971 173.198 518.28 172.619 517.889 171.986C512.296 162.924 500.684 168.804 488.738 151.628C498.531 160.967 523.655 173 522.801 173.638C522.752 173.675 522.698 173.709 522.64 173.742V173.742Z" fill="#E6E6E6"/>
<path d="M528.029 137.6C527.86 138.363 527.089 139.153 526.192 139.546L526.09 139.591C525.189 139.986 524.298 140.12 523.565 139.993C513.073 138.174 509.778 150.766 488.999 148.325C502.483 147.183 528.146 136.348 528.058 137.41C528.053 137.471 528.043 137.534 528.029 137.6V137.6Z" fill="#E6E6E6"/>
<path d="M423.029 184.931C422.275 183.598 422.541 181.967 423.577 180.937L423.693 180.821C424.732 179.787 426.114 179.189 427.576 179.089C448.503 177.663 436.963 155.456 476.813 150.714C454.704 158.297 424.544 187.049 423.238 185.257C423.163 185.153 423.093 185.045 423.029 184.931V184.931Z" fill="#E6E6E6"/>
<path d="M507.19 184.691C506.416 185.208 505.422 185.105 504.762 184.503L504.687 184.435C504.023 183.832 503.609 182.999 503.493 182.098C501.822 169.202 488.884 177.183 484.479 152.702C489.908 166.097 508.408 183.674 507.378 184.549C507.319 184.6 507.256 184.647 507.19 184.691L507.19 184.691Z" fill="#E6E6E6"/>
<path d="M483.752 205.903C482.566 205.913 481.568 205.116 481.269 204.022L481.235 203.898C480.934 202.8 481.058 201.633 481.549 200.6C488.574 185.807 469.201 185.282 481.21 156.347V156.347C477.886 174.27 485.758 205.671 484.052 205.883C483.953 205.895 483.853 205.902 483.752 205.903V205.903Z" fill="#6C63FF"/>
<path d="M440.833 185.687C440.069 184.78 440.046 183.502 440.697 182.574L440.771 182.469C441.424 181.537 442.402 180.889 443.511 180.607C459.385 176.58 447.43 161.326 477.374 152.116C461.45 160.99 442.291 187.083 441.039 185.905C440.967 185.837 440.898 185.764 440.833 185.687V185.687Z" fill="#6C63FF"/>
<path d="M450.463 172.443C449.98 171.992 449.967 171.313 450.381 170.792L450.428 170.733C450.843 170.21 451.464 169.824 452.167 169.628C462.232 166.828 454.673 159.199 473.662 153.058C463.559 158.441 451.386 173.127 450.594 172.551C450.548 172.518 450.505 172.482 450.463 172.443V172.443Z" fill="#6C63FF"/>
<path d="M464.539 182.094C463.928 181.842 463.677 181.21 463.882 180.577L463.905 180.505C464.109 179.87 464.555 179.29 465.144 178.86C473.584 172.701 463.826 168.215 479.445 155.793C471.879 164.383 465.643 182.41 464.699 182.149C464.645 182.134 464.591 182.116 464.539 182.094V182.094Z" fill="#E6E6E6"/>
<path d="M423.359 139.308L424.894 144.032H429.861L425.842 146.952L427.377 151.676L423.359 148.756L419.34 151.676L420.875 146.952L416.856 144.032H421.824L423.359 139.308Z" fill="#6C63FF"/>
<path d="M491.811 82.6868L493.346 87.411H498.313L494.295 90.3307L495.83 95.0549L491.811 92.1352L487.792 95.0549L489.327 90.3307L485.309 87.411H490.276L491.811 82.6868Z" fill="#E6E6E6"/>
<path d="M528.15 133.392L529.685 138.116H534.652L530.633 141.036L532.168 145.76L528.15 142.84L524.131 145.76L525.666 141.036L521.647 138.116H526.615L528.15 133.392Z" fill="#6C63FF"/>
<path d="M454.627 184.943L456.162 189.667H461.13L457.111 192.587L458.646 197.311L454.627 194.391L450.609 197.311L452.144 192.587L448.125 189.667H453.092L454.627 184.943Z" fill="#6C63FF"/>
<path d="M482.515 133.392L484.05 138.116H489.017L484.999 141.036L486.534 145.76L482.515 142.84L478.496 145.76L480.031 141.036L476.013 138.116H480.98L482.515 133.392Z" fill="#6C63FF"/>
<path d="M520.866 82.6868L522.401 87.411H527.368L523.349 90.3307L524.884 95.0549L520.866 92.1352L516.847 95.0549L518.382 90.3307L514.363 87.411H519.331L520.866 82.6868Z" fill="#E6E6E6"/>
<path d="M420.755 176.055L422.702 180.625L427.65 180.186L423.905 183.449L425.852 188.019L421.591 185.466L417.846 188.73L418.957 183.888L414.696 181.335L419.644 180.896L420.755 176.055Z" fill="#E6E6E6"/>
<path d="M463.25 88.7727C464.146 88.3316 465.153 88.6292 465.723 89.4284L465.787 89.5186C466.36 90.3205 466.632 91.335 466.584 92.3726C465.901 107.223 480.754 100.585 480.73 129C477.626 112.901 461.802 89.6981 463.029 88.8986C463.099 88.8525 463.173 88.8105 463.25 88.7727V88.7727Z" fill="#6C63FF"/>
<path d="M450.296 110.785C450.693 110.289 451.345 110.22 451.877 110.571L451.937 110.61C452.471 110.961 452.889 111.518 453.131 112.17C456.585 121.493 463.343 113.688 470.685 131.206C464.746 122.061 449.709 111.717 450.202 110.918C450.231 110.872 450.262 110.827 450.296 110.785L450.296 110.785Z" fill="#E6E6E6"/>
<path d="M438.862 137.884C438.917 137.251 439.42 136.832 440.057 136.827L440.129 136.826C440.769 136.821 441.426 137.052 441.989 137.459C450.043 143.288 451.322 133.043 467.164 143.522C457.142 139.222 438.893 138.985 438.858 138.046C438.856 137.992 438.858 137.938 438.862 137.884V137.884Z" fill="#E6E6E6"/>
</svg>
